<?xml version="1.0" encoding="utf-8"?>
<!-- Generator: Adobe Illustrator 23.0.1, SVG Export Plug-In . SVG Version: 6.00 Build 0)  -->
<svg version="1.1" id="레이어_1" xmlns="http://www.w3.org/2000/svg" xmlns:xlink="http://www.w3.org/1999/xlink" x="0px"
	 y="0px" viewBox="0 0 24 24" style="enable-background:new 0 0 24 24;" xml:space="preserve">
<style type="text/css">
	.st0{fill:none;}
</style>
<path d="M16.1,6.5V17c0,2-1.6,3.6-3.6,3.6S8.9,19,8.9,17V5.6c0-1.3,1-2.3,2.3-2.3s2.3,1,2.3,2.3v9.5c0,0.5-0.4,0.9-0.9,0.9
	s-0.9-0.4-0.9-0.9V6.5h-1.4v8.6c0,1.3,1,2.3,2.3,2.3s2.3-1,2.3-2.3V5.6c0-2-1.6-3.6-3.6-3.6S7.5,3.6,7.5,5.6V17c0,2.8,2.2,5,5,5
	s5-2.2,5-5V6.5H16.1z"/>
<path class="st0" d="M0,0h24v24H0V0z"/>
</svg>
