<?xml version="1.0" encoding="utf-8"?>
<!-- Generator: Adobe Illustrator 23.0.1, SVG Export Plug-In . SVG Version: 6.00 Build 0)  -->
<svg version="1.1" id="레이어_1" xmlns="http://www.w3.org/2000/svg" xmlns:xlink="http://www.w3.org/1999/xlink" x="0px"
	 y="0px" viewBox="0 0 24 24" style="enable-background:new 0 0 24 24;" xml:space="preserve">
<style type="text/css">
	.st0{fill:none;}
</style>
<path d="M12,14.1c1.7,0,3-1.4,3-3.2l0-6.3c0-1.7-1.3-3.2-3-3.2S9,2.9,9,4.7V11C9,12.7,10.3,14.1,12,14.1z M17.3,11
	c0,3.2-2.5,5.4-5.3,5.4S6.7,14.1,6.7,11H5c0,3.6,2.7,6.6,6,7.1v3.5h2V18c3.3-0.5,6-3.5,6-7.1H17.3z"/>
<path class="st0" d="M0,0h24v24H0V0z"/>
</svg>
