<?xml version="1.0" encoding="utf-8"?>
<!-- Generator: Adobe Illustrator 23.0.1, SVG Export Plug-In . SVG Version: 6.00 Build 0)  -->
<svg version="1.1" id="레이어_1" xmlns="http://www.w3.org/2000/svg" xmlns:xlink="http://www.w3.org/1999/xlink" x="0px"
	 y="0px" viewBox="0 0 24 24" style="enable-background:new 0 0 24 24;" xml:space="preserve">
<style type="text/css">
	.st0{fill:none;}
</style>
<path d="M2,12.5c0-3.3,2.5-6,5.5-6H18c2.2,0,4,2,4,4.4s-1.8,4.4-4,4.4H9.5C8.1,15.2,7,14,7,12.5s1.1-2.7,2.5-2.7H17V12H9.4
	c-0.6,0-0.6,1.1,0,1.1H18c1.1,0,2-1,2-2.2s-0.9-2.2-2-2.2H7.5C5.6,8.7,4,10.4,4,12.5s1.6,3.8,3.5,3.8H17v2.2H7.5
	C4.5,18.5,2,15.8,2,12.5z"/>
<path class="st0" d="M0,0h24v24H0V0z"/>
</svg>
