<?xml version="1.0" encoding="utf-8"?>
<!-- Generator: Adobe Illustrator 23.0.1, SVG Export Plug-In . SVG Version: 6.00 Build 0)  -->
<svg version="1.1" id="레이어_1" xmlns="http://www.w3.org/2000/svg" xmlns:xlink="http://www.w3.org/1999/xlink" x="0px"
	 y="0px" viewBox="0 0 24 24" style="enable-background:new 0 0 24 24;" xml:space="preserve">
<style type="text/css">
	.st0{fill:none;}
</style>
<path d="M7.7,22.5h1.7v-1.7H7.7V22.5z M12,12.9c1.4,0,2.6-1.2,2.6-2.6l0-5.2c0-1.4-1.1-2.6-2.6-2.6S9.4,3.7,9.4,5.1v5.2
	C9.4,11.8,10.6,12.9,12,12.9z M11.1,22.5h1.7v-1.7h-1.7V22.5z M14.6,22.5h1.7v-1.7h-1.7V22.5z M18,10.3h-1.5c0,2.6-2.2,4.4-4.5,4.4
	s-4.5-1.8-4.5-4.4H6c0,3,2.3,5.4,5.1,5.8V19h1.7v-2.9C15.7,15.7,18,13.3,18,10.3z"/>
<path class="st0" d="M0,0h24v24H0V0z"/>
</svg>
