<?xml version="1.0" encoding="utf-8"?>
<!-- Generator: Adobe Illustrator 16.0.0, SVG Export Plug-In . SVG Version: 6.00 Build 0)  -->
<!DOCTYPE svg PUBLIC "-//W3C//DTD SVG 1.1//EN" "http://www.w3.org/Graphics/SVG/1.1/DTD/svg11.dtd">
<svg version="1.1" id="Layer_1" xmlns="http://www.w3.org/2000/svg" xmlns:xlink="http://www.w3.org/1999/xlink" x="0px" y="0px"
	 width="24px" height="24px" viewBox="0 0 24 24" enable-background="new 0 0 24 24" xml:space="preserve">
<path fill="none" d="M0,0h24v24H0V0z"/>
<path d="M16.125,10.04C15.559,6.59,13.034,4,10,4C7.592,4,5.5,5.64,4.458,8.04C1.95,8.36,0,10.91,0,14c0,3.311,2.242,6,5,6h10.833
	c2.3,0,4.167-2.24,4.167-5C20,12.36,18.292,10.22,16.125,10.04z M14.167,13L10,18l-4.167-5h2.5V9h3.333v4H14.167z"/>
</svg>
