<?xml version="1.0" encoding="utf-8"?>
<!-- Generator: Adobe Illustrator 16.0.0, SVG Export Plug-In . SVG Version: 6.00 Build 0)  -->
<!DOCTYPE svg PUBLIC "-//W3C//DTD SVG 1.1//EN" "http://www.w3.org/Graphics/SVG/1.1/DTD/svg11.dtd">
<svg version="1.1" id="Layer_1" xmlns="http://www.w3.org/2000/svg" xmlns:xlink="http://www.w3.org/1999/xlink" x="0px" y="0px"
	 width="24px" height="24px" viewBox="0 0 24 24" enable-background="new 0 0 24 24" xml:space="preserve">
<path d="M17.294,14.323h-0.903l-0.321-0.309c1.122-1.305,1.796-2.996,1.796-4.837c0-4.104-3.327-7.433-7.433-7.433
	C6.328,1.745,3,5.073,3,9.178c0,4.105,3.328,7.433,7.433,7.433c1.841,0,3.532-0.674,4.837-1.796l0.309,0.321v0.903l5.719,5.706
	L23,20.042L17.294,14.323z M10.433,14.323c-2.848,0-5.146-2.297-5.146-5.146s2.298-5.146,5.146-5.146
	c2.848,0,5.146,2.298,5.146,5.146S13.28,14.323,10.433,14.323z"/>
<path fill="none" d="M0,0h24v24H0V0z"/>
</svg>
